# xmcd
#
# Track frame offsets:
#	150
#	16110
#	31052
#	43562
#	54710
#	75197
#	89257
#	106490
#	124607
#	137117
#	152895
#	163072
#	179405
#	192782
#	207735
#	226830
#	242752
#	255512
#	272472
#	287662
#
# Disc length: 4045
#
# Revision: 3
# Processed by: cddbd v1.5.1PL0 Copyright (c) Steve Scherf et al.
# Submitted via: DiscPlay 4.0.4
# Normalized: r1:TSWAP
#
DISCID=060fcb14
DTITLE=Various Artist - Great Original Country Hits Of The 80's
DYEAR=1900
DGENRE=
TTITLE0=The Oak RIdge Boys - Touch A Hand, Make A Friend
TTITLE1=Lee Greenwood - Dixie Road
TTITLE2=Sawyer Brown - Step That Step
TTITLE3=Eddie Raven - I Got Mexico
TTITLE4=Ronnie Milsap - In Love
TTITLE5=George Strait - Am I Blue
TTITLE6=Barbara Mandrell - Only A Lonely Heart Knows
TTITLE7=Anne Murray - Anyone Can Do The Heartbreak
TTITLE8=Reba McEntire - I'm Not That Lonely Yet
TTITLE9=Earl Thomas - Love Don't Care (Whose Heart It Breaks)
TTITLE10=Alan Jackson - Blue Blooded WOman
TTITLE11=Keith Whitley - I'm No Stranger To The Rain
TTITLE12=Restless Heart - Why Does It Have To Be (Wrong Or Right)
TTITLE13=Reba McEntire - Today All Over Again
TTITLE14=Desert Rose Band - I Still Believe In You
TTITLE15=The Judds - Maybe Your Baby's Got The Blues
TTITLE16=Clint Black - Killin' TIme
TTITLE17=Lorrie Morgan - Dear Me
TTITLE18=Jody Rodman - I'll Be Your Baby Tonight
TTITLE19=George Strait - Baby's Gotten Good At Goodbye
EXTD=
EXTT0=
EXTT1=
EXTT2=
EXTT3=
EXTT4=
EXTT5=
EXTT6=
EXTT7=
EXTT8=
EXTT9=
EXTT10=
EXTT11=
EXTT12=
EXTT13=
EXTT14=
EXTT15=
EXTT16=
EXTT17=
EXTT18=
EXTT19=
PLAYORDER=
